<?xml version="1.0" encoding="UTF-8" standalone="no"?>
<!-- Created with Inkscape (http://www.inkscape.org/) -->

<svg
   width="746.99463"
   height="192"
   viewBox="0 0 746.99463 192"
   version="1.1"
   id="svg5"
   inkscape:version="1.2.2 (b0a8486541, 2022-12-01)"
   sodipodi:docname="logo.svg"
   xmlns:inkscape="http://www.inkscape.org/namespaces/inkscape"
   xmlns:sodipodi="http://sodipodi.sourceforge.net/DTD/sodipodi-0.dtd"
   xmlns="http://www.w3.org/2000/svg"
   xmlns:svg="http://www.w3.org/2000/svg">
  <sodipodi:namedview
     id="namedview7"
     pagecolor="#ffffff"
     bordercolor="#000000"
     borderopacity="0.25"
     inkscape:showpageshadow="2"
     inkscape:pageopacity="0.0"
     inkscape:pagecheckerboard="0"
     inkscape:deskcolor="#d1d1d1"
     inkscape:document-units="px"
     showgrid="false"
     inkscape:zoom="0.67395834"
     inkscape:cx="-117.21793"
     inkscape:cy="105.34776"
     inkscape:window-width="1920"
     inkscape:window-height="1008"
     inkscape:window-x="0"
     inkscape:window-y="0"
     inkscape:window-maximized="1"
     inkscape:current-layer="layer1" />
  <defs
     id="defs2">
    <rect
       x="825.64056"
       y="321.35922"
       width="604.73358"
       height="423.72278"
       id="rect285" />
    <rect
       x="514.18958"
       y="622.18701"
       width="171.81128"
       height="240.87836"
       id="rect279" />
    <rect
       x="98.911324"
       y="57.87088"
       width="1234.072"
       height="492.25"
       id="rect113" />
  </defs>
  <g
     inkscape:label="Layer 1"
     inkscape:groupmode="layer"
     id="layer1"
     transform="translate(-43.54352,-118.092)">
    <g
       aria-label="Digital"
       transform="matrix(0.88504896,0,0,1,-60.481692,31.444871)"
       id="text111"
       style="font-size:192px;white-space:pre;shape-inside:url(#rect113);fill:#ffffff">
      <path
         d="m 227.36011,162.67913 q 0,34.752 -19.008,52.416 -18.816,17.472 -52.608,17.472 h -38.208 V 95.479129 h 42.24 q 20.736,0 35.904,7.680001 15.168,7.68 23.424,22.656 8.256,14.784 8.256,36.864 z m -18.24,0.576 q 0,-27.456 -13.632,-40.128 -13.44,-12.864 -38.208,-12.864 h -22.464 v 107.52 h 18.624 q 55.68,0 55.68,-54.528 z"
         id="path401"
         style="fill:#ffffff" />
      <path
         d="m 264.03202,91.063129 q 3.84,0 6.72,2.688 3.072,2.496 3.072,8.064001 0,5.376 -3.072,8.064 -2.88,2.688 -6.72,2.688 -4.224,0 -7.104,-2.688 -2.88,-2.688 -2.88,-8.064 0,-5.568001 2.88,-8.064001 2.88,-2.688 7.104,-2.688 z m 8.256,38.592001 v 102.912 h -16.896 v -102.912 z"
         id="path403"
         style="fill:#ffffff" />
      <path
         d="m 341.40791,127.73513 q 10.176,0 18.24,3.84 8.256,3.84 14.016,11.712 h 0.96 l 2.304,-13.632 h 13.44 v 104.64 q 0,22.08 -11.328,33.216 -11.136,11.136 -34.752,11.136 -22.656,0 -37.056,-6.528 v -15.552 q 15.168,8.064 38.016,8.064 13.248,0 20.736,-7.872 7.68,-7.68 7.68,-21.12 v -4.032 q 0,-2.304 0.192,-6.528 0.192,-4.416 0.384,-6.144 h -0.768 q -10.368,15.552 -31.872,15.552 -19.968,0 -31.296,-14.016 -11.136,-14.016 -11.136,-39.168 0,-24.576 11.136,-38.976 11.328,-14.592 31.104,-14.592 z m 2.304,14.208 q -12.864,0 -19.968,10.368 -7.104,10.176 -7.104,29.184 0,19.008 6.912,29.184 7.104,9.984 20.544,9.984 15.552,0 22.656,-8.256 7.104,-8.448 7.104,-27.072 v -4.032 q 0,-21.12 -7.296,-30.144 -7.296,-9.216 -22.848,-9.216 z"
         id="path405"
         style="fill:#ffffff" />
      <path
         d="m 431.64787,91.063129 q 3.84,0 6.72,2.688 3.072,2.496 3.072,8.064001 0,5.376 -3.072,8.064 -2.88,2.688 -6.72,2.688 -4.224,0 -7.104,-2.688 -2.88,-2.688 -2.88,-8.064 0,-5.568001 2.88,-8.064001 2.88,-2.688 7.104,-2.688 z m 8.256,38.592001 v 102.912 h -16.896 v -102.912 z"
         id="path407"
         style="fill:#ffffff" />
      <path
         d="m 506.91175,220.66313 q 3.84,0 7.872,-0.576 4.032,-0.768 6.528,-1.536 v 12.864 q -2.688,1.344 -7.68,2.112 -4.992,0.96 -9.6,0.96 -8.064,0 -14.976,-2.688 -6.72,-2.88 -10.944,-9.792 -4.224,-6.912 -4.224,-19.392 v -59.904 h -14.592 v -8.064 l 14.784,-6.72 6.72,-21.888 h 9.984 v 23.616 h 29.76 v 13.056 h -29.76 v 59.52 q 0,9.408 4.416,14.016 4.608,4.416 11.712,4.416 z"
         id="path409"
         style="fill:#ffffff" />
      <path
         d="m 580.83177,127.92713 q 18.816,0 27.84,8.256 9.024,8.256 9.024,26.304 v 70.08 h -12.288 l -3.264,-14.592 h -0.768 q -6.72,8.448 -14.208,12.48 -7.296,4.032 -20.352,4.032 -14.016,0 -23.232,-7.296 -9.216,-7.488 -9.216,-23.232 0,-15.36 12.096,-23.616 12.096,-8.448 37.248,-9.216 l 17.472,-0.576 v -6.144 q 0,-12.864 -5.568,-17.856 -5.568,-4.992 -15.744,-4.992 -8.064,0 -15.36,2.496 -7.296,2.304 -13.632,5.376 l -5.184,-12.672 q 6.72,-3.648 15.936,-6.144 9.216,-2.688 19.2,-2.688 z m 4.992,54.912 q -19.2,0.768 -26.688,6.144 -7.296,5.376 -7.296,15.168 0,8.64 5.184,12.672 5.376,4.032 13.632,4.032 13.056,0 21.696,-7.104 8.64,-7.296 8.64,-22.272 v -9.216 z"
         id="path411"
         style="fill:#ffffff" />
      <path
         d="m 666.46392,232.56713 h -16.896 V 86.647129 h 16.896 z"
         id="path413"
         style="fill:#ffffff" />
    </g>
    <text
       xml:space="preserve"
       id="text283"
       style="font-size:192px;white-space:pre;shape-inside:url(#rect285);display:inline;fill:#000000" />
    <g
       id="g399"
       transform="matrix(1.3487671,0,0,1.3520173,-175.94895,-770.52537)">
      <g
         aria-label="C"
         id="text277"
         style="font-size:192px;white-space:pre;shape-inside:url(#rect279);fill:#37abc8">
        <path
           d="m 591.56545,673.04354 c -14.72,0 -26.304,4.928 -34.752,14.784 -8.448,9.856 -12.672,23.36 -12.672,40.512 0,17.024 3.904,30.528 11.712,40.512 7.936,9.856 19.776,14.784 35.52,14.784 6.016,0 11.712,-0.512 17.088,-1.536 5.376,-1.024 10.624,-2.304 15.744,-3.84 v 14.976 c -5.12,1.92 -10.432,3.328 -15.936,4.224 -5.376,0.896 -11.84,1.344 -19.392,1.344 -13.952,0 -25.6,-2.88 -34.944,-8.64 -9.344,-5.76 -16.384,-13.952 -21.12,-24.576 -4.608,-10.624 -6.912,-23.104 -6.912,-37.44 0,-13.824 2.496,-25.984 7.488,-36.48 5.12,-10.624 12.608,-18.88 22.464,-24.768 9.856,-6.016 21.83897,-9.67318 35.904,-9.024 14.25728,0.65805 15.47406,0.33193 27.65109,3.9369 l -5.10845,28.85355 c -4.92253,-8.76168 -2.90873,-5.03753 -6.95919,-12.76086 -4.17163,-4.26884 -9.63145,-4.86159 -15.77545,-4.86159 z"
           id="path296"
           sodipodi:nodetypes="ssscsscccsscsccscccs"
           style="fill:#37abc8" />
      </g>
      <g
         aria-label="V"
         id="text291"
         style="font-size:192px">
        <path
           d="m 716.57079,661.81837 -48.96,137.088 h -17.28 l -43.01245,-121.03819 12.10045,-16.04981 30.912,87.936 c 2.048,5.632 3.776,10.944 5.184,15.936 1.408,4.864 2.56,9.536 3.456,14.016 0.896,-4.48 2.048,-9.216 3.456,-14.208 1.408,-4.992 3.136,-10.368 5.184,-16.128 l 30.72,-87.552 z"
           id="path293"
           style="fill:#0066ff"
           sodipodi:nodetypes="ccccccccsccc" />
      </g>
    </g>
    <rect
       style="fill:#0066ff;stroke-width:1.00909"
       id="rect233"
       width="213.49991"
       height="12.867305"
       x="43.658516"
       y="270.20053" />
    <rect
       style="fill:#0066ff;stroke-width:1.05732"
       id="rect235"
       width="234.39845"
       height="12.867305"
       x="295.90253"
       y="270.49448" />
  </g>
</svg>
